<svg xmlns="http://www.w3.org/2000/svg" viewBox="0 0 62.41 69.78"><defs><style>.cls-1{fill:none;}.cls-2{fill:#1c1c1c;}</style></defs><title>Asset 3</title><g id="Layer_2" data-name="Layer 2"><g id="Layer_1-2" data-name="Layer 1"><polygon class="cls-1" points="35.93 6.9 26.33 6.9 24.89 9.54 37.13 9.54 35.93 6.9"/><path class="cls-2" d="M62.4,15.65a24,24,0,0,0-.13-3,10.41,10.41,0,0,0-10.19-9H43A5.42,5.42,0,0,0,38.54.22a121,121,0,0,0-14.75,0,5.44,5.44,0,0,0-4.43,3.42H9.83A10.54,10.54,0,0,0,0,14.42c0,5.12,0,10.33,0,15.36,0,2.3,0,4.6,0,6.9v6C0,47.81,0,53,0,58.14c0,7.28,4.4,11.63,11.72,11.64H50.27c7.82,0,12.13-4.27,12.14-12Q62.41,36.7,62.4,15.65ZM26.33,6.9h9.6l1.2,2.64H24.89ZM47.07,26.83A2.83,2.83,0,0,1,46,28.4c-.07.07-.15.13-.21.2l-2.72,2.72L28.78,45.59c-1.2,1.19-2.18,1.79-3.16,1.79s-1.95-.59-3.14-1.77l-2.89-2.89L16.3,39.43c-2.34-2.31-1.32-4.09-.5-5a3.21,3.21,0,0,1,2.33-1.09h0A4,4,0,0,1,21,34.82l4.57,4.71,2.73-2.72L40.83,24.26l.3-.33a3.59,3.59,0,0,1,1.93-1.34,4.34,4.34,0,0,1,3.51.78C47.45,24.18,47.33,25.51,47.07,26.83Z"/></g></g></svg>