<svg xmlns="http://www.w3.org/2000/svg" viewBox="0 0 62.41 69.78"><defs><style>.cls-1{fill:#99b2c6;}</style></defs><title>Asset 7</title><g id="Layer_2" data-name="Layer 2"><g id="Layer_1-2" data-name="Layer 1"><path class="cls-1" d="M62.4,15.65a24,24,0,0,0-.13-3,10.41,10.41,0,0,0-10.19-9,4.21,4.21,0,0,0-3.41,2.44,2.75,2.75,0,0,0,.17,2.38,3.7,3.7,0,0,0,2.65,1.65c3.51.66,4.31,1.62,4.31,5.13q0,6.21,0,12.43c0,9.93,0,20.19.08,30.29a5.17,5.17,0,0,1-1.35,3.88,5.24,5.24,0,0,1-3.91,1.35c-4.89-.09-9.87-.07-14.68,0H24.32q-6.43,0-12.85,0c-3.31,0-4.85-1.54-4.85-4.78q0-21.95,0-43.9a3.91,3.91,0,0,1,3.79-4.3c3.35-.41,3.61-2.54,3.47-3.77-.23-2-1.6-2.94-4.06-2.8A10.54,10.54,0,0,0,0,14.42c0,5.12,0,10.33,0,15.36,0,2.3,0,4.6,0,6.9v6C0,47.81,0,53,0,58.14c0,7.28,4.4,11.63,11.72,11.64H50.27c7.82,0,12.13-4.27,12.14-12Q62.41,36.7,62.4,15.65Z"/><path class="cls-1" d="M19.59,42.72l2.89,2.89c1.19,1.18,2.16,1.77,3.14,1.77s2-.6,3.16-1.79L43.06,31.32l2.72-2.72c.06-.07.14-.13.21-.2a2.83,2.83,0,0,0,1.08-1.57c.26-1.32.38-2.65-.5-3.46a4.34,4.34,0,0,0-3.51-.78,3.59,3.59,0,0,0-1.93,1.34l-.3.33L28.26,36.81l-2.73,2.72L21,34.82a4,4,0,0,0-2.82-1.43h0a3.21,3.21,0,0,0-2.33,1.09c-.82.86-1.84,2.64.5,5Z"/><path class="cls-1" d="M21.61,10h0A4,4,0,0,0,25,7.36c.21-.8.44-1,1.46-1,3.6,0,6.57,0,9.34,0,1.21,0,1.37.2,1.57,1A3.85,3.85,0,0,0,40.64,10h.18a3.59,3.59,0,0,0,2.31-1.53l.16-.19.46-.42V7.24c0-3.82-2.23-6.84-5.21-7a121,121,0,0,0-14.75,0c-2.91.18-4.87,3.14-5.1,5.91a3.88,3.88,0,0,0,.84,3A2.74,2.74,0,0,0,21.61,10Z"/></g></g></svg>