<svg xmlns="http://www.w3.org/2000/svg" viewBox="0 0 33.08 17.75"><defs><style>.cls-1{fill:#fff;}</style></defs><title>Asset 12</title><g id="Layer_2" data-name="Layer 2"><g id="Layer_1-2" data-name="Layer 1"><path class="cls-1" d="M13.68,0V17.75H11.36v-8h-9v8.05H0V0H2.32V7.79h9V0Z"/><path class="cls-1" d="M28.69,1.08A7.63,7.63,0,0,1,32,4.18a9.43,9.43,0,0,1,1.13,4.73A9.38,9.38,0,0,1,32,13.64a7.54,7.54,0,0,1-3.26,3.06,11.24,11.24,0,0,1-5,1.05H18.13V0h5.53A11,11,0,0,1,28.69,1.08ZM28.91,14a7,7,0,0,0,1.81-5.11,7.07,7.07,0,0,0-1.83-5.17,7,7,0,0,0-5.23-1.86H20.45v14h3.21A7.07,7.07,0,0,0,28.91,14Z"/></g></g></svg>