<svg xmlns="http://www.w3.org/2000/svg" viewBox="0 0 50.3 23.57"><defs><style>.cls-1{fill:#fff;}</style></defs><title>Asset 11</title><g id="Layer_2" data-name="Layer 2"><g id="Layer_1-2" data-name="Layer 1"><path class="cls-1" d="M18.63,7.06V5.65h3.19V17.92H20.26V7.06Z"/><path class="cls-1" d="M32.05,17.92l-2.21-3.46-2.12,3.46H26.1l3-4.61-3-4.69h1.75l2.21,3.45,2.1-3.45h1.62l-3,4.6,3,4.7Z"/><path class="cls-1" d="M38.52,23.57H11.79A11.79,11.79,0,1,1,11.79,0H38.52a11.79,11.79,0,0,1,0,23.57ZM11.79,1.41a10.38,10.38,0,1,0,0,20.75H38.52a10.38,10.38,0,0,0,0-20.75Z"/></g></g></svg>