<svg xmlns="http://www.w3.org/2000/svg" viewBox="0 0 68.04 74.34"><defs><style>.cls-1{fill:#fff;}</style></defs><title>Asset 16</title><g id="Layer_2" data-name="Layer 2"><g id="Layer_1-2" data-name="Layer 1"><path class="cls-1" d="M39.6,12.75c0,.81,0,1.53-.1,2.24-.27,3.19-3.11,4.84-5.93,3.32-3.2-1.72-6.35-3.55-9.46-5.44A3.87,3.87,0,0,1,24,6.08c3.14-1.93,6.35-3.79,9.6-5.54C36.41-.95,39.31.79,39.52,4c.06.89,0,1.79,0,2.83l1.84.44A34,34,0,1,1,.68,46.82c-2.17-11.24.87-21.17,8.55-29.67a7.08,7.08,0,0,1,1.09-1A2.86,2.86,0,0,1,14,16.4a2.75,2.75,0,0,1,.26,3.68c-.26.36-.61.66-.9,1-7.63,8.68-9.81,18.6-5.69,29.37s12.33,16.9,23.83,18A28.24,28.24,0,0,0,41.2,13,14.87,14.87,0,0,0,39.6,12.75Z"/><path class="cls-1" d="M50.42,40.52A13.74,13.74,0,0,1,48,48.6c-3.15,4.53-11.31,4.62-14.33-.55A14.63,14.63,0,0,1,34.56,33c3-4,11.13-4.54,14.22,1A13.48,13.48,0,0,1,50.42,40.52Zm-13,.11c.37,1.47.61,2.85,1.07,4.15a2.84,2.84,0,0,0,5.43,0,10.55,10.55,0,0,0,.66-2.93,9,9,0,0,0-1.06-5.35c-1.27-2.12-3.89-2.08-4.94.14A24.16,24.16,0,0,0,37.47,40.63Z"/><path class="cls-1" d="M29,51.47H23.32V37.77L20,39.31l-2.08-3.76c2.52-1.84,4.91-3.67,7.39-5.37,1.08-.74,2.37-.19,3.67-.31Z"/></g></g></svg>