<svg width="53" height="53" viewBox="0 0 53 53" fill="none" xmlns="http://www.w3.org/2000/svg">
<g id="Group 1">
<path id="Vector" d="M26.5 52C40.5833 52 52 40.5833 52 26.5C52 12.4167 40.5833 1 26.5 1C12.4167 1 1 12.4167 1 26.5C1 40.5833 12.4167 52 26.5 52Z" fill="#603BAD" stroke="white" stroke-width="2" stroke-miterlimit="10"/>
<g id="Group">
<path id="Vector_2" d="M26.5003 35.8293C23.2351 35.8293 19.9698 35.8293 16.5491 35.8293C14.9942 35.8293 14.2168 35.0518 14.2168 33.497C14.2168 29.7652 14.2168 26.0335 14.2168 22.3018C14.2168 20.9024 14.9942 20.125 16.3936 20.125C17.482 20.125 18.5705 20.125 19.6589 20.125C19.9698 20.125 20.4363 19.9695 20.7473 19.6585C21.3692 19.0366 21.9912 18.4146 22.6131 17.7927C23.0796 17.3262 23.5461 17.0152 24.3235 17.0152C25.8784 17.0152 27.4333 17.0152 28.9881 17.0152C29.6101 17.0152 30.232 17.1707 30.6985 17.6372C31.3205 18.2591 31.9424 19.0366 32.5644 19.503C32.8753 19.6585 33.1863 19.814 33.4973 19.814C34.5857 19.814 35.6741 19.814 36.7625 19.814C38.0064 19.814 38.7839 20.5915 38.7839 21.6799C38.7839 25.5671 38.7839 29.6098 38.7839 33.497C38.7839 34.7409 37.8509 35.5183 36.607 35.5183C33.1863 35.8293 29.7656 35.8293 26.5003 35.8293ZM31.9424 27.4329C31.9424 24.4787 29.6101 21.9909 26.5003 21.9909C23.5461 21.9909 21.0583 24.4787 21.0583 27.4329C21.0583 30.3872 23.5461 32.875 26.5003 32.875C29.4546 32.875 31.9424 30.5427 31.9424 27.4329ZM36.4516 23.2348C36.918 23.2348 37.0735 22.9238 37.229 22.4573C37.229 21.9909 36.918 21.6799 36.4516 21.6799C35.9851 21.6799 35.6741 21.9909 35.6741 22.4573C35.5186 22.7683 35.9851 23.2348 36.4516 23.2348Z" fill="white"/>
<path id="Vector_3" d="M22.4573 27.4329C22.4573 25.2561 24.3232 23.3902 26.5 23.3902C28.8323 23.3902 30.5427 25.2561 30.5427 27.5884C30.5427 29.7652 28.6768 31.6311 26.5 31.6311C24.1677 31.6311 22.3018 29.7652 22.4573 27.4329Z" fill="white"/>
</g>
</g>
</svg>
