<?xml version="1.0" encoding="UTF-8"?>
<svg id="Layer_2" data-name="Layer 2" xmlns="http://www.w3.org/2000/svg" viewBox="0 0 66.12 63.31">
  <defs>
    <style>
      .cls-1 {
        fill: #555555;
      }

      .cls-2 {
        fill: #555555;
      }
    </style>
  </defs>
  <g id="Layer_1-2" data-name="Layer 1">
    <g>
      <path class="cls-1" d="M32.81,63.24c-5.83,0-11.65,.08-17.48-.01C5.03,63.06,.05,58,.03,47.81c-.02-8.49-.07-16.98,.02-25.47,.08-8.13,4.64-12.84,12.58-14.01,2.09-.31,3.95-2.25,5.9-3.46,2.44-1.5,4.73-3.94,7.33-4.33,4.71-.71,9.67-.71,14.38,0,2.6,.39,4.89,2.83,7.33,4.33,1.96,1.21,3.81,3.15,5.91,3.46,7.95,1.18,12.5,5.88,12.58,14.01,.08,8.82,.06,17.65,0,26.47-.06,8.84-5.17,14.09-14.28,14.4-6.32,.21-12.65,.04-18.98,.04Zm.26-6.22c6.16,0,12.32,.08,18.48-.02,5.98-.1,8.43-2.62,8.47-8.58,.06-8.33,.04-16.65,0-24.98-.03-6.2-1.94-8.35-8.06-8.97-3.87-.39-6.86-1.85-9.03-5.33-.86-1.39-2.96-2.45-4.66-2.76-2.58-.46-5.32,.01-7.97-.17-3.59-.25-5.93,.81-8.27,3.97-1.68,2.26-5.4,3.52-8.44,4.15-5.08,1.05-7.44,2.99-7.49,8.13-.09,8.83-.09,17.65,0,26.48,.05,5.34,2.59,7.92,7.98,8.04,6.32,.14,12.66,.03,18.98,.04Z"/>
      <path class="cls-2" d="M33.68,18.24c9.2,.36,16.16,7.88,15.78,17.05-.38,9.22-7.9,16.16-17.07,15.76-9.15-.39-16.33-8.12-15.84-17.06,.51-9.28,7.94-16.12,17.12-15.75Zm-.64,26.7c5.96,.01,10.36-4.44,10.31-10.4-.05-5.73-4.32-10.06-10.03-10.18-5.96-.12-10.49,4.23-10.55,10.15-.07,5.96,4.33,10.42,10.27,10.43Z"/>
    </g>
  </g>
</svg>
