<?xml version="1.0" encoding="utf-8"?>
<!-- Generator: Adobe Illustrator 24.0.0, SVG Export Plug-In . SVG Version: 6.00 Build 0)  -->
<svg version="1.1" id="Layer_1" xmlns="http://www.w3.org/2000/svg" xmlns:xlink="http://www.w3.org/1999/xlink" x="0px" y="0px"
	 viewBox="0 0 1024 1024" style="enable-background:new 0 0 1024 1024;" xml:space="preserve">
<style type="text/css">
	.st0{fill:#B2B2B2;}
</style>
<path class="st0" d="M946.9,828.05L630.82,511.97l316.04-316.04c32.8-32.8,32.8-86.02,0-118.82s-86.02-32.8-118.82,0L512,393.15
	L195.96,77.1c-32.8-32.8-86.02-32.8-118.82,0s-32.8,86.02,0,118.82l316.04,316.04L77.1,828.05c-32.8,32.8-32.8,86.02,0,118.82
	c32.8,32.8,86.02,32.8,118.82,0L512,630.79l316.08,316.08c32.8,32.8,86.02,32.8,118.82,0C979.7,914.07,979.7,860.85,946.9,828.05z"
	/>
</svg>
