<svg xmlns="http://www.w3.org/2000/svg" viewBox="0 0 68.03 74.34"><defs><style>.cls-1{fill:#fff;}</style></defs><title>Asset 15</title><g id="Layer_2" data-name="Layer 2"><g id="Layer_1-2" data-name="Layer 1"><path class="cls-1" d="M28.53,6.78c0-.93,0-1.76,0-2.59C28.69.72,31.64-1,34.67.64S40.91,4.15,44,6a3.88,3.88,0,0,1,.06,6.8c-3.1,1.9-6.26,3.72-9.45,5.45-2.94,1.6-5.89-.19-6-3.55,0-.6,0-1.21,0-2-.5.06-.87.07-1.23.15A28.27,28.27,0,1,0,62.29,39a27.61,27.61,0,0,0-7.63-18,10.55,10.55,0,0,1-.9-1A2.84,2.84,0,0,1,54,16.44,2.88,2.88,0,0,1,57.53,16a5.9,5.9,0,0,1,1.13,1A34,34,0,1,1,26.29,7.29Z"/><path class="cls-1" d="M50.25,40.91a13.38,13.38,0,0,1-1.81,7.18,8.41,8.41,0,0,1-8.34,4.23,7.83,7.83,0,0,1-7.21-5.17A13.89,13.89,0,0,1,33.4,35a8.85,8.85,0,0,1,11.51-4,8.21,8.21,0,0,1,4.29,4.51A12.59,12.59,0,0,1,50.25,40.91Zm-5.58.81a11.48,11.48,0,0,0-1.12-4.58,2.86,2.86,0,0,0-2.66-1.72,2.66,2.66,0,0,0-2.55,1.85,9.88,9.88,0,0,0,.08,8,2.85,2.85,0,0,0,5.45-.14A29.49,29.49,0,0,0,44.67,41.72Z"/><path class="cls-1" d="M28.83,51.84H23c.24-4.53.4-9,.2-13.68l-3.33,1.55-2-3.64c.37-.33.67-.65,1-.91,1.62-1.2,3.35-2.27,4.85-3.6s3.17-1.45,5.11-1.11Z"/></g></g></svg>