<svg xmlns="http://www.w3.org/2000/svg" viewBox="0 0 23.93 23.93"><defs><style>.cls-1{fill:#fff;}</style></defs><title>Asset 13</title><g id="Layer_2" data-name="Layer 2"><g id="Layer_1-2" data-name="Layer 1"><path class="cls-1" d="M8.53,0H3.11A3.11,3.11,0,0,0,0,3.11V8.53a.85.85,0,0,0,.85.85.85.85,0,0,0,.86-.85V3.11a1.4,1.4,0,0,1,1.4-1.4H8.53A.85.85,0,0,0,9.38.85.85.85,0,0,0,8.53,0Z"/><path class="cls-1" d="M20.82,0H15.41a.86.86,0,1,0,0,1.71h5.41a1.4,1.4,0,0,1,1.4,1.4V8.53a.86.86,0,0,0,.86.85.85.85,0,0,0,.85-.85V3.11A3.11,3.11,0,0,0,20.82,0Z"/><path class="cls-1" d="M23.08,14.55a.86.86,0,0,0-.86.86v5.41a1.4,1.4,0,0,1-1.4,1.4H15.41a.86.86,0,1,0,0,1.71h5.41a3.11,3.11,0,0,0,3.11-3.11V15.41A.85.85,0,0,0,23.08,14.55Z"/><path class="cls-1" d="M8.53,22.22H3.11a1.4,1.4,0,0,1-1.4-1.4V15.41a.86.86,0,1,0-1.71,0v5.41a3.11,3.11,0,0,0,3.11,3.11H8.53a.85.85,0,0,0,.85-.85A.86.86,0,0,0,8.53,22.22Z"/></g></g></svg>