<svg xmlns="http://www.w3.org/2000/svg" viewBox="0 0 62.91 67.91"><defs><style>.cls-1{fill:#99b2c6;}</style></defs><title>Asset 4</title><g id="Layer_2" data-name="Layer 2"><g id="Layer_1-2" data-name="Layer 1"><path class="cls-1" d="M52.72,67.91H35.31V54.76c0-2.76-1.77-5.1-3.85-5.1S27.6,52,27.6,54.76V67.91H10.2A10.21,10.21,0,0,1,0,57.71V27.8A10.17,10.17,0,0,1,3.69,20L25,2.34a10.21,10.21,0,0,1,13,0L59.22,20a10.14,10.14,0,0,1,3.69,7.85V57.71A10.21,10.21,0,0,1,52.72,67.91Zm-11.42-6H52.72a4.22,4.22,0,0,0,4.21-4.21V27.8a4.19,4.19,0,0,0-1.53-3.24L34.14,7a4.21,4.21,0,0,0-5.37,0L7.51,24.56A4.18,4.18,0,0,0,6,27.8V57.71a4.22,4.22,0,0,0,4.21,4.21H21.62V54.76c0-6.11,4.41-11.09,9.84-11.09s9.84,5,9.84,11.09Z"/></g></g></svg>