<?xml version="1.0" encoding="UTF-8"?>
<svg id="Layer_2" data-name="Layer 2" xmlns="http://www.w3.org/2000/svg" viewBox="0 0 66.07 66.06">
  <defs>
    <style>
      .cls-1 {
        fill: #555555;
      }

      .cls-2 {
        fill: #555555;
      }
    </style>
  </defs>
  <g id="Layer_1-2" data-name="Layer 1">
    <g>
      <path class="cls-1" d="M32.8,66.04c-5.99,0-11.98,.05-17.97-.01C5.76,65.95,.12,60.45,.06,51.51c-.08-12.31-.08-24.63,0-36.94C.12,5.65,5.78,.09,14.82,.05c12.15-.06,24.3-.06,36.45,0,9.24,.05,14.74,5.66,14.77,15.02,.05,11.98,.05,23.96,0,35.95-.04,9.56-5.57,14.98-15.27,15.03-5.99,.03-11.98,0-17.97,0ZM6.05,45.92c2.26-2.44,3.53-3.93,4.92-5.29,4.46-4.37,6.92-4.39,11.34,.04,2.1,2.1,3.99,4.41,6.38,7.08,5.41-5.51,10.23-10.53,15.18-15.43,4.35-4.3,6.63-4.26,10.95-.08,1.55,1.5,3.08,3.02,5.23,5.13,0-8.34,.07-15.49-.02-22.65-.07-5.71-2.92-8.63-8.58-8.66-12.31-.08-24.63-.09-36.94,0-5.4,.04-8.36,2.97-8.42,8.31-.11,9.97-.03,19.95-.03,31.54Zm10.73-3.77c-2.94,3.45-5.08,5.76-6.98,8.26-1.18,1.55-3.18,4.42-2.75,4.92,1.68,1.95,4.14,4.42,6.38,4.49,13.12,.41,26.26,.36,39.39,.11,4.37-.08,6.8-3.05,7.2-7.46,.58-6.31-4.28-13.34-11.5-16.49-4.74,4.78-9.48,9.66-14.34,14.43-3.96,3.89-6.62,3.91-10.58-.09-2.21-2.23-4.06-4.81-6.84-8.17Z"/>
      <path class="cls-2" d="M16.64,22.84c-2.11-2.8-4.57-4.69-4.3-6.05,.35-1.8,2.82-3.19,4.39-4.76,1.45,1.52,3.9,2.95,4.05,4.59,.14,1.57-2.11,3.36-4.13,6.22Z"/>
    </g>
  </g>
</svg>
