<svg xmlns="http://www.w3.org/2000/svg" viewBox="0 0 49.46 49.46"><defs><style>.cls-1{fill:#22a0a0;}</style></defs><title>Asset 58</title><g id="Layer_2" data-name="Layer 2"><g id="Layer_1-2" data-name="Layer 1"><path class="cls-1" d="M49.46,22.86V26.6a6.14,6.14,0,0,0-.18.74C47.85,37.65,42.21,44.6,32.45,48.15a47.23,47.23,0,0,1-5.85,1.31H22.86c-.54-.08-1.08-.14-1.61-.24C11.46,47.44,4.74,41.94,1.34,32.56A45.55,45.55,0,0,1,0,26.6V22.86c.06-.25.14-.49.18-.74C1.61,11.8,7.25,4.86,17,1.31A46.83,46.83,0,0,1,22.86,0H26.6c.54.08,1.08.14,1.61.24C38,2,44.72,7.52,48.12,16.89A47.38,47.38,0,0,1,49.46,22.86ZM24.75,46.76a22.17,22.17,0,0,0,22-22,22.17,22.17,0,0,0-22-22,22.17,22.17,0,0,0-22,22.05A22.17,22.17,0,0,0,24.75,46.76Z"/><path class="cls-1" d="M28,28.89c0,2.3,0,4.61,0,6.92a3.26,3.26,0,1,1-6.5,0q0-7,0-14a3.25,3.25,0,1,1,6.48,0C28,24.13,28,26.51,28,28.89Z"/><path class="cls-1" d="M24.75,10.11a3.48,3.48,0,0,1,3.37,3.38,3.39,3.39,0,1,1-6.78,0A3.48,3.48,0,0,1,24.75,10.11Z"/></g></g></svg>