<svg xmlns="http://www.w3.org/2000/svg" viewBox="0 0 55.84 74.46"><defs><style>.cls-1{fill:#fff;}</style></defs><title>Group 2</title><g id="Layer_2" data-name="Layer 2"><g id="Layer_1-2" data-name="Layer 1"><g id="Group_2" data-name="Group 2"><path id="Path" class="cls-1" d="M50.66,35.46,3.43.43a2.12,2.12,0,0,0-3,.45A2.24,2.24,0,0,0,0,2.2V72.26a2.17,2.17,0,0,0,2.13,2.2A2.1,2.1,0,0,0,3.43,74L50.66,39a2.22,2.22,0,0,0,.48-3.06A2.19,2.19,0,0,0,50.66,35.46Z"/><path id="Path-2" class="cls-1" d="M53.7,0A2.17,2.17,0,0,0,51.55,2.2V72.26a2.15,2.15,0,1,0,4.29,0h0V2.2A2.16,2.16,0,0,0,53.7,0Z"/></g></g></g></svg>