<svg xmlns="http://www.w3.org/2000/svg" viewBox="0 0 91.56 104.8"><defs><style>.cls-1{fill:#dd6464;}</style></defs><title>Asset 22</title><g id="Layer_2" data-name="Layer 2"><g id="Layer_1-2" data-name="Layer 1"><path class="cls-1" d="M84.83,22.83,63.54,4.62A19.24,19.24,0,0,0,51,0H24.09A24.12,24.12,0,0,0,0,24.09V80.72A24.11,24.11,0,0,0,24.09,104.8H67.48A24.1,24.1,0,0,0,91.56,80.72V37.45A19.21,19.21,0,0,0,84.83,22.83ZM82.37,80.72A14.91,14.91,0,0,1,67.48,95.61H24.09A14.91,14.91,0,0,1,9.19,80.72V24.09a14.91,14.91,0,0,1,14.9-14.9H51a10.05,10.05,0,0,1,6.54,2.42l21.28,18.2a10,10,0,0,1,3.52,7.64Z"/><path class="cls-1" d="M24.58,46.46H46.89a4.6,4.6,0,0,0,0-9.2H24.58a4.6,4.6,0,1,0,0,9.2Z"/><path class="cls-1" d="M66,58.59H24.58a4.6,4.6,0,1,0,0,9.19H66a4.6,4.6,0,0,0,0-9.19Z"/></g></g></svg>