<svg xmlns="http://www.w3.org/2000/svg" viewBox="0 0 137.47 168.86"><defs><style>.cls-1{fill:#c9232f;}</style></defs><title>Asset 19</title><g id="Layer_2" data-name="Layer 2"><g id="Layer_1-2" data-name="Layer 1"><path class="cls-1" d="M121.83,168.86H24.53a6.72,6.72,0,0,0-.89-.32c-6.7-1.47-11.47-5.33-13.56-11.86-.9-2.8-.8-5.93-1.05-8.92-.13-1.61,0-3.24,0-4.84a26.23,26.23,0,0,1-3.22-.25C2.15,141.93,0,139,0,134.78Q0,119.38,0,104c0-4.23-.08-8.47.07-12.69A7,7,0,0,1,7,84.46c.63,0,1.26,0,2,0V82.24Q9,50.52,9,18.78C9,7.73,16.73,0,27.78,0Q60.51,0,93.23,0A3.49,3.49,0,0,1,96,1.16q20.05,20,40.18,40a4.24,4.24,0,0,1,1.34,3.32q0,52.41,0,104.83c0,.83,0,1.65-.05,2.47a17.61,17.61,0,0,1-6.91,13.3C127.93,167.15,124.91,168.06,121.83,168.86ZM20,142.83v6.83c0,5.48,2.73,8.22,8.21,8.22h90c5.6,0,8.25-2.68,8.24-8.31l-.27-100.73v-2h-2.12c-7.42,0-14.84.13-22.25-.09A11.79,11.79,0,0,1,90.87,35.9c-.26-7.63-.16-15.27-.21-22.9,0-.64-.07-1.27-.1-2-.6,0-1-.06-1.46-.06L27.92,11C22.76,11,20,13.84,20,19q0,31.89,0,63.8v1.64h85c5.77,0,8.55,2.8,8.55,8.63,0,13.74-.09,27.47,0,41.21,0,5.23-3.24,8.64-8.67,8.61-27.59-.13-55.18-.06-82.77-.06ZM45.43,99.62v30c4.14,0,8.17.33,12.12-.07,9.51-1,14.32-6.25,14.61-15.46.24-7.91-4-13.15-11.77-14.61C55.41,98.6,50.45,99,45.43,99.62Zm-19.52,30V119.05a70.3,70.3,0,0,0,7.06-.77c4.9-1,7.65-4.48,7.83-9.44a8.67,8.67,0,0,0-6.75-9.13c-5-1.33-10-.68-15-.08v30Zm50.88-.06h6.9V117.32H94.46v-5.55H83.75v-7H95.26V99.38H76.79Z"/><path class="cls-1" d="M52.27,124.25V104.73c3.77-1.29,8.57,0,10.79,2.91,2.35,3.06,2.39,9.49.1,13C61.06,123.81,56.42,125.37,52.27,124.25Z"/><path class="cls-1" d="M25.9,113.4v-8.8c2.77-.92,5.89-.34,7.22,1.3a4.67,4.67,0,0,1,.25,5.25C31.57,113.91,28.8,113.68,25.9,113.4Z"/></g></g></svg>