<svg xmlns="http://www.w3.org/2000/svg" viewBox="0 0 104.8 104.8"><defs><style>.cls-1{fill:#36a0e8;}</style></defs><title>Asset 23</title><g id="Layer_2" data-name="Layer 2"><g id="Layer_1-2" data-name="Layer 1"><path class="cls-1" d="M80.71,0H24.09A24.12,24.12,0,0,0,0,24.09V80.72A24.11,24.11,0,0,0,24.09,104.8H80.71A24.11,24.11,0,0,0,104.8,80.72V24.09A24.11,24.11,0,0,0,80.71,0Zm14.9,80.72a14.91,14.91,0,0,1-14.9,14.89H24.09A14.91,14.91,0,0,1,9.19,80.72V24.09a14.91,14.91,0,0,1,14.9-14.9H80.71a14.91,14.91,0,0,1,14.9,14.9Z"/><path class="cls-1" d="M67,47.66,56,41.33,45.05,35a5.47,5.47,0,0,0-8.21,4.74V65.06a5.47,5.47,0,0,0,8.21,4.74l11-6.33,11-6.33A5.47,5.47,0,0,0,67,47.66Z"/></g></g></svg>