<svg xmlns="http://www.w3.org/2000/svg" viewBox="0 0 55.84 74.46"><defs><style>.cls-1{fill:#fff;}</style></defs><title>Group</title><g id="Layer_2" data-name="Layer 2"><g id="Layer_1-2" data-name="Layer 1"><g id="Group"><path id="Path_Copy" data-name="Path Copy" class="cls-1" d="M5.18,35.46,52.41.43A2.11,2.11,0,0,1,54.67.24a2.19,2.19,0,0,1,1.17,2V72.27a2.19,2.19,0,0,1-1.17,2,2.09,2.09,0,0,1-1,.24A2.11,2.11,0,0,1,52.41,74L5.18,39a2.22,2.22,0,0,1,0-3.54Z"/><path id="Path_Copy_2" data-name="Path Copy 2" class="cls-1" d="M2.15,0A2.17,2.17,0,0,1,4.3,2.2V72.27a2.17,2.17,0,0,1-2.15,2.19A2.17,2.17,0,0,1,0,72.27V2.2A2.17,2.17,0,0,1,2.15,0Z"/></g></g></g></svg>