<svg xmlns="http://www.w3.org/2000/svg" viewBox="0 0 64.48 66.22"><defs><style>.cls-1{fill:#99b2c6;}</style></defs><title>Asset 6</title><g id="Layer_2" data-name="Layer 2"><g id="Layer_1-2" data-name="Layer 1"><path class="cls-1" d="M32.24,36.38C16.71,36.38,0,41.05,0,51.3S16.71,66.22,32.24,66.22,64.48,61.55,64.48,51.3,47.77,36.38,32.24,36.38ZM57.07,51.3c0,2.1-8.7,7.23-24.83,7.23S7.41,53.4,7.41,51.3s8.7-7.23,24.83-7.23S57.07,49.2,57.07,51.3Z"/><path class="cls-1" d="M32.24,33.26A16.63,16.63,0,1,0,15.61,16.63,16.65,16.65,0,0,0,32.24,33.26Zm-9-16.63a9,9,0,1,1,9,9A9.06,9.06,0,0,1,23.2,16.63Z"/></g></g></svg>