<svg xmlns="http://www.w3.org/2000/svg" viewBox="0 0 64.4 64.4"><defs><style>.cls-1{fill:none;stroke:#1987a4;stroke-miterlimit:10;stroke-width:2px;}.cls-2{fill:#1987a4;}</style></defs><title>Asset 56</title><g id="Layer_2" data-name="Layer 2"><g id="Layer_1-2" data-name="Layer 1"><rect class="cls-1" x="1" y="1" width="62.4" height="62.4" rx="31.2"/><path class="cls-2" d="M28.94,18.44c-.57-.47-1-.8-1.43-1.18a1.31,1.31,0,0,1-.21-1.88,1.29,1.29,0,0,1,1.83-.13c1.29,1,2.56,2,3.83,3.08a1.27,1.27,0,0,1,.29,1.81Q32,22.1,30.69,24a1.34,1.34,0,0,1-1.92.45,1.3,1.3,0,0,1-.25-1.87c.14-.25.31-.48.46-.72l.43-.71L29.3,21a24.9,24.9,0,0,0-3,1.2,12.52,12.52,0,0,0-6.49,13.46,12.57,12.57,0,0,0,24.73-4.57,18.7,18.7,0,0,0-1-3.06c-.39-1-.25-1.74.53-2.08s1.38,0,1.84,1A15.19,15.19,0,1,1,27.7,18.76C28.05,18.65,28.4,18.57,28.94,18.44Z"/></g></g></svg>