<svg xmlns="http://www.w3.org/2000/svg" viewBox="0 0 71.78 73.96"><defs><style>.cls-1{fill:#09afff;}</style></defs><title>Asset 10</title><g id="Layer_2" data-name="Layer 2"><g id="Layer_1-2" data-name="Layer 1"><path class="cls-1" d="M36.19,36a15,15,0,0,0-11.44,4.84c-1,1-1.36,2.16-.25,3.2s2,.3,2.91-.5c4.79-4.36,11.35-4.87,16-1.28a9.82,9.82,0,0,1,1.3,1.19,2,2,0,0,0,2.94.37c1-.88.59-2-.26-3a15,15,0,0,0-10-4.85C37,36,36.6,36,36.19,36Z"/><path class="cls-1" d="M44.68,21.58a2.48,2.48,0,0,0,2.54,2.55,2.6,2.6,0,1,0,.09-5.2A2.51,2.51,0,0,0,44.68,21.58Z"/><path class="cls-1" d="M22.26,21.5a2.6,2.6,0,0,0,2.51,2.63A2.59,2.59,0,1,0,25.05,19,2.64,2.64,0,0,0,22.26,21.5Z"/><path class="cls-1" d="M70,74a1.85,1.85,0,0,1-1.08-.35L57.83,65.47H9.33A9.34,9.34,0,0,1,0,56.14V9.33A9.33,9.33,0,0,1,9.33,0H62.46a9.33,9.33,0,0,1,9.32,9.33V72.15a1.79,1.79,0,0,1-1,1.61A1.71,1.71,0,0,1,70,74ZM9.33,3.63a5.71,5.71,0,0,0-5.7,5.7V56.14a5.71,5.71,0,0,0,5.7,5.7h49.1a1.8,1.8,0,0,1,1.07.35l8.65,6.37V9.33a5.7,5.7,0,0,0-5.69-5.7Z"/></g></g></svg>